<svg width="509" height="88" viewBox="0 0 509 88" fill="none" xmlns="http://www.w3.org/2000/svg">
<g clip-path="url(#clip0)">
<path d="M26.4287 38.2274C26.4287 38.2274 25.1671 36.9431 24.2848 30.112C24.2848 30.112 24.5979 28.8989 22.0556 29.446C19.5132 29.993 13.5179 30.8303 9.86096 28.3947C6.204 25.9591 6.97714 24.6652 4.54391 25.4406C2.11068 26.216 1.1668 27.1388 0.7494 26.8106C0.332005 26.4824 -0.104363 25.3835 0.341492 25.2265C0.787346 25.0695 1.56996 25.2788 2.01107 25.1647C2.45219 25.0505 3.90833 24.689 4.136 24.1181C4.1754 23.976 4.18623 23.8274 4.16788 23.6811C4.14953 23.5347 4.10235 23.3935 4.02909 23.2655C3.95583 23.1376 3.85794 23.0256 3.74113 22.9359C3.62432 22.8463 3.4909 22.7808 3.34864 22.7434C2.72729 22.5103 0.739915 22.2201 0.46007 21.2068C0.180225 20.1936 0.607107 19.8463 1.55573 19.9605C2.50436 20.0747 3.04982 21.654 3.79449 22.2772C4.53916 22.9003 4.82375 22.7529 5.05617 22.5769C5.28858 22.4008 5.5874 22.144 4.91387 21.1165C4.24035 20.0889 3.78975 19.2137 4.17869 18.795C4.56762 18.3764 5.41665 18.4145 5.38819 19.1994C5.4686 20.0818 5.64515 20.9528 5.91467 21.7967C5.91467 21.7967 6.20875 22.9384 6.70678 23.0383C7.20481 23.1382 7.6554 23.4046 8.84593 22.6292C10.0365 21.8538 10.0175 20.9214 10.9519 21.2021C11.8863 21.4828 11.9764 22.848 11.0183 23.1049C10.0602 23.3618 8.76055 23.6995 8.61826 24.1372C8.47597 24.5748 8.22458 25.0458 8.84593 25.4882C9.46728 25.9306 13.3946 27.0009 13.9401 27.0056C14.4855 27.0104 16.2784 27.9856 21.088 26.5299C25.8975 25.0743 22.8998 21.0737 22.8998 21.0737C21.8413 19.7793 21.2809 18.1471 21.3204 16.4736C21.4342 13.7764 21.4674 11.6357 23.3315 9.8138C25.1955 7.99186 28.1505 8.03942 28.1505 8.03942C28.1505 8.03942 32.2106 8.18213 34.1695 11.2789C36.1284 14.3758 35.8913 15.1179 36.3609 16.1644C36.8304 17.211 36.9111 22.7053 40.9237 24.727C44.9364 26.7488 43.2052 26.7583 45.1926 28.1901C47.1799 29.622 50.2582 31.5533 54.2045 28.2425C54.2045 28.2425 56.9081 26.0638 55.6275 24.3703C54.3468 22.6768 54.5365 22.4341 55.0203 22.1915C55.5041 21.9489 56.9176 21.654 56.6899 22.8575C56.4623 24.0611 56.6188 24.9649 57.003 25.1789C57.3872 25.393 57.8947 25.5643 58.5208 24.6319C59.1469 23.6995 59.422 22.1773 60.1429 22.0441C60.8639 21.9109 61.9216 23.1382 61.0916 23.7471C60.2615 24.356 58.6631 25.5452 58.5967 26.0209C58.5303 26.4966 58.1698 27.448 59.3034 27.5432C60.437 27.6383 62.1493 26.3254 62.1493 26.3254C62.1493 26.3254 63.0979 25.5833 63.2687 26.4396C63.4394 27.2958 63.3398 27.7715 61.8172 27.9808C60.2346 28.236 58.7326 28.8565 57.4299 29.7933C56.4243 30.5686 51.3871 33.9176 49.0345 33.6274C46.6819 33.3372 45.4297 33.1898 43.8171 32.0623C42.2044 30.9349 41.7396 30.973 41.7396 30.973C41.7396 30.973 42.5838 34.5408 42.3751 36.6529C42.1664 38.765 41.6447 40.7724 44.3483 41.0103C47.0519 41.2481 54.8211 42.014 54.8211 42.014C54.8211 42.014 58.2077 42.3613 57.0883 45.8196C57.0883 45.8196 56.0164 46.9661 54.8638 48.1458C54.4749 48.5406 54.0765 48.945 53.7065 49.3065C53.2729 49.7489 52.8136 50.165 52.331 50.5529C51.2922 51.3045 49.8314 52.4557 51.3824 52.6792C52.9334 52.9028 54.4369 51.7278 54.4369 51.7278C54.4369 51.7278 55.0868 51.2854 54.4369 50.4863C54.1427 50.1449 53.8851 49.7734 53.6685 49.3779L54.8733 48.1839C54.8733 48.1839 55.0915 49.6395 55.8978 49.9487C56.7042 50.2579 57.482 50.1105 58.5872 48.5216C59.6923 46.9328 60.5556 44.3783 61.7888 45.5247C63.022 46.6711 61.5089 47.0136 60.1904 48.5406C58.8718 50.0676 58.3643 50.5005 58.6583 50.9192C58.9524 51.3378 60.0813 51 61.3856 50.2056C62.69 49.4112 64.4212 47.9222 64.7058 48.3408C64.9904 48.7595 66.162 50.1247 63.5343 50.7193C60.9066 51.314 59.92 52.1465 60.1192 52.5508C60.3184 52.9552 62.9271 53.3357 64.222 52.9456C65.5169 52.5556 65.9485 53.5831 64.573 54.5773C63.1975 55.5715 58.4401 54.2015 58.4401 54.2015C58.4401 54.2015 55.9832 53.9494 51.5911 55.3907C47.1989 56.8321 44.5333 57.8977 43.7649 56.8178C42.9965 55.738 43.1388 54.9864 44.8131 52.3605C45.5957 51.1996 46.2993 49.9869 46.9191 48.7309C46.9191 48.7309 48.4606 46.1479 44.8938 46.89C41.3269 47.6321 36.8731 48.7499 33.681 51.3711C30.4889 53.9922 28.4446 55.1576 27.643 55.4811C26.8414 55.8046 26.7987 56.7037 28.6295 58.3924C30.4604 60.0812 34.4162 62.845 36.0952 65.3948C37.7743 67.9445 37.3047 67.8684 35.9672 69.6761C34.6296 71.4837 30.707 73.5578 29.2177 75.8126C27.7283 78.0674 26.9268 78.448 25.5086 84.1184C25.5086 84.1184 25.6414 86.2019 23.8817 86.24C22.122 86.278 23.8437 82.91 23.8437 82.91C23.8437 82.91 25.2335 80.8074 24.0809 81.5115C22.9283 82.2155 20.5615 83.4952 20.5615 83.4952C20.5615 83.4952 19.0294 84.7558 18.4555 83.7235C17.8816 82.6912 19.6887 82.1537 20.2152 81.9967C20.7417 81.8397 23.7346 80.836 23.8342 80.1462C23.9338 79.4565 23.7726 78.4385 22.8856 78.7191C21.6732 79.1067 20.4959 79.5969 19.3662 80.1843C18.9535 80.4745 17.4689 80.5506 17.3077 79.4803C17.1464 78.4099 17.7014 78.2577 19.2334 78.0532C20.7654 77.8486 23.3315 77.3634 23.3315 77.3634C23.3315 77.3634 24.5694 76.8877 23.6161 76.06C22.6627 75.2322 22.2311 75.2227 22.6674 74.6329C23.1038 74.043 23.4216 73.9431 24.4603 75.3036C25.4991 76.6641 27.3062 75.6937 27.3062 75.6937C27.3062 75.6937 27.8422 75.5129 30.6027 71.6074C33.3632 67.7019 33.7332 66.8979 31.4375 65.2806C29.1418 63.6632 22.8002 59.0679 21.8231 57.1366C20.8461 55.2052 20.4002 54.7581 23.5117 52.2416C26.6232 49.7251 30.3608 47.0897 30.3608 47.0897C30.3608 47.0897 32.1916 45.3297 30.1948 43.327C28.759 41.7689 27.4963 40.059 26.4287 38.2274Z" fill="#5AB143" stroke="#5AB143" stroke-width="0.62" stroke-miterlimit="10"/>
<path d="M87.9377 21.7775C87.9377 21.7775 103.898 26.6059 106.071 27.5287C108.243 28.4516 111.004 27.5287 114.034 22.1771C117.065 16.8255 119.94 8.75756 119.94 8.75756C119.94 8.75756 120.77 6.56934 122.786 7.21629C124.801 7.86325 125.442 8.96687 125.902 13.5479C126.362 18.1289 126.447 25.2359 125.712 29.6218C124.977 34.0078 128.297 34.5406 130.137 35.197C131.978 35.8535 144.889 39.878 144.889 39.878C144.889 39.878 150.817 40.8531 149.893 43.7787C149.893 43.7787 149.1 45.3913 145.832 46.3142C142.564 47.2371 128.672 51.7182 128.672 51.7182C128.672 51.7182 126.774 52.1415 126.509 55.1813C126.243 58.221 126.509 76.4974 126.509 76.4974C126.509 76.4974 126.571 78.6619 124.536 79.3516C122.501 80.0414 121.073 77.5059 119.579 75.1655C118.085 72.825 111.089 60.9563 111.089 60.9563C111.089 60.9563 109.993 58.1021 106.488 59.9145C102.983 61.7269 90.4184 67.1214 86.8895 67.8492C83.3606 68.577 83.095 64.9141 84.1669 63.663C85.2389 62.4119 97.2011 47.6985 97.2011 47.6985C97.2011 47.6985 100.469 44.1164 96.4754 39.8209C92.4816 35.5253 84.7124 25.5118 84.7124 25.5118C84.3666 25.1291 84.1527 24.645 84.1023 24.131C84.052 23.6171 84.1677 23.1005 84.4325 22.6576C85.3622 21.0973 87.9377 21.7775 87.9377 21.7775Z" fill="#1EAFD7"/>
<path d="M108.457 39.4574C108.866 38.1599 108.246 36.8061 107.072 36.4338C105.898 36.0615 104.615 36.8115 104.206 38.1091C103.797 39.4066 104.417 40.7603 105.59 41.1327C106.764 41.505 108.048 40.755 108.457 39.4574Z" fill="white"/>
<path d="M116.166 47.9964C116.692 46.3306 115.887 44.5898 114.368 44.1081C112.849 43.6264 111.193 44.5864 110.667 46.2521C110.142 47.9179 110.947 49.6588 112.466 50.1404C113.984 50.6221 115.641 49.6622 116.166 47.9964Z" fill="white"/>
<path d="M131.815 43.3642C132.156 42.2821 131.558 41.1274 130.479 40.7851C129.4 40.4429 128.249 41.0427 127.908 42.1248C127.567 43.207 128.165 44.3617 129.244 44.7039C130.323 45.0461 131.474 44.4463 131.815 43.3642Z" fill="white"/>
<path d="M123.809 67.9935C124.256 66.5757 123.542 65.0847 122.213 64.6632C120.884 64.2418 119.444 65.0495 118.997 66.4673C118.55 67.8851 119.265 69.3761 120.594 69.7975C121.923 70.219 123.362 69.4113 123.809 67.9935Z" fill="white"/>
<path d="M369.433 35.0259C369.433 35.0259 359.909 54.3061 362.48 78.0626C362.48 78.0626 362.67 79.642 364.216 79.5468C365.762 79.4517 368.409 74.1667 368.409 74.1667C368.409 74.1667 372.863 65.1283 378.716 61.7508C384.569 58.3734 396.91 58.5779 400.947 54.9436C404.983 51.3092 404.457 38.0514 407.146 33.8272C409.835 29.6029 412.586 24.7888 423.989 19.8082C423.989 19.8082 427.115 17.3298 425.255 16.1073C423.396 14.8847 411.661 13.5623 400.534 16.5545C389.407 19.5466 381.841 22.8289 381.405 22.8289C380.969 22.8289 380.333 21.8252 380.333 21.8252C380.333 21.8252 379.052 23.0097 378.213 22.2248C377.373 21.4399 374.366 17.7913 371.919 19.8891C369.471 21.987 372.393 22.4484 373.052 22.2105C373.712 21.9727 375.22 22.3866 376.102 23.6757C376.102 23.6757 372.142 25.726 370.633 29.5554C370.633 29.5554 368.599 28.604 368.855 26.7012C369.111 24.7984 367.816 23.3284 366.042 25.5357C364.268 27.7429 368.954 31.696 368.954 31.696C369.055 31.8268 369.127 31.9767 369.168 32.1366C369.209 32.2965 369.216 32.463 369.191 32.626C369.165 32.7889 369.106 32.9449 369.018 33.0844C368.93 33.2239 368.815 33.3439 368.679 33.4371C368.679 33.4371 369.908 34.0032 369.433 35.0259Z" fill="#954E99"/>
<path d="M401.302 53.5593L421.911 75.2228L400.268 54.5964L401.302 53.5593Z" fill="#954E99"/>
<path d="M163.467 6.99746C164.007 7.08566 164.553 7.12071 165.099 7.10212C166.522 7.03552 166.854 6.51225 168.894 5.92713C169.582 5.67257 170.308 5.53277 171.042 5.51328C172.546 5.56085 174.092 6.35052 174.087 7.02602C174.087 7.38755 173.689 7.73005 172.963 8.89076C172.758 9.21148 172.581 9.54882 172.432 9.89924C172.351 10.2779 172.419 10.6732 172.622 11.0029C173.186 12.254 174.211 13.2339 175.235 14.29C175.577 14.6467 176.089 15.1795 176.701 15.8598C176.701 15.8598 178.536 18.1051 186.908 18.0908C186.234 19.5805 185.042 20.7728 183.555 21.4445C183.555 21.4445 184.418 24.1655 183.275 26.33C183.275 26.33 180.5 21.4398 175.875 20.2838C171.251 19.1279 166.726 18.4666 166.726 18.4666C166.627 19.5925 166.22 20.669 165.55 21.5777C165.55 21.5777 164.876 22.4958 163.04 17.1156C163.04 17.1156 153.896 13.6763 151.885 6.65021C151.885 6.65021 151.975 6.37906 152.881 7.0498C152.881 7.0498 153.502 7.20202 152.316 6.05082C152.263 6.0102 152.22 5.95768 152.19 5.8974C152.16 5.83713 152.145 5.77076 152.146 5.70355C152.245 5.12795 155.774 4.78069 158.833 5.70355L161.494 6.49798C162.137 6.72052 162.797 6.88762 163.467 6.99746Z" fill="#E84153"/>
<path d="M182.829 37.6564C183.368 37.7446 183.915 37.7796 184.46 37.7611C185.883 37.6945 186.215 37.1712 188.255 36.5861C188.944 36.3315 189.67 36.1917 190.404 36.1722C191.907 36.2198 193.453 37.0094 193.449 37.6849C193.449 38.0465 193.05 38.389 192.325 39.5497C192.12 39.8704 191.942 40.2078 191.793 40.5582C191.713 40.9368 191.78 41.3322 191.983 41.6618C192.548 42.9129 193.572 43.8928 194.597 44.9489C194.938 45.3057 195.45 45.8385 196.062 46.5187C196.062 46.5187 197.898 48.764 206.269 48.7498C205.595 50.2394 204.403 51.4317 202.916 52.1034C202.916 52.1034 203.779 54.8245 202.636 56.9889C202.636 56.9889 199.861 52.0987 195.237 50.9427C190.612 49.7868 186.087 49.1256 186.087 49.1256C185.988 50.2514 185.581 51.3279 184.911 52.2366C184.911 52.2366 184.238 53.1547 182.402 47.7746C182.402 47.7746 173.257 44.3352 171.246 37.3091C171.246 37.3091 171.336 37.038 172.242 37.7087C172.242 37.7087 172.864 37.861 171.678 36.7098C171.624 36.6691 171.581 36.6166 171.552 36.5563C171.522 36.4961 171.507 36.4297 171.507 36.3625C171.607 35.7869 175.135 35.4396 178.195 36.3625L180.856 37.1569C181.498 37.3795 182.158 37.5466 182.829 37.6564Z" fill="#E84153"/>
<path d="M212.131 57.0264C219.833 49.3019 223.455 40.4106 220.221 37.167C216.987 33.9234 208.121 37.5558 200.419 45.2803C192.717 53.0047 189.095 61.8961 192.33 65.1396C195.564 68.3832 204.429 64.7508 212.131 57.0264Z" stroke="#E84153" stroke-width="4.26" stroke-miterlimit="10"/>
<path d="M217.169 36.101L221.523 31.696C222.628 32.4897 223.636 33.411 224.526 34.4408L226.025 36.0344L221.637 40.6392" stroke="#E84153" stroke-width="4.26" stroke-miterlimit="10"/>
<path d="M222.619 32.2194L247.862 5.14722L251.102 8.60557L225.702 35.8062L222.619 32.2194Z" fill="#E84153" stroke="#E84153" stroke-miterlimit="10"/>
<path d="M193.349 65.9464C196.935 69.9708 207.64 80.9786 221.599 81.44C223.971 81.4758 226.338 81.2412 228.657 80.7407C242.739 77.8056 247.772 70.9793 246.819 65.5183C246.344 62.6974 243.773 61.4558 239.486 58.3828C232.592 53.3834 226.542 47.3077 221.566 40.387L221.533 41.091C219.605 47.1306 216.365 52.666 212.047 57.2982C206.435 63.2254 201.289 64.9712 199.885 65.309C198.775 65.5643 197.651 65.7486 196.518 65.8608C195.465 65.9606 194.406 65.9892 193.349 65.9464V65.9464Z" stroke="#E84153" stroke-width="4.26" stroke-miterlimit="10"/>
<path d="M210.088 59.2153L209.632 78.0246" stroke="#E84153" stroke-width="4.26" stroke-miterlimit="10"/>
<path d="M221.599 42.4182V81.421" stroke="#E84153" stroke-width="4.26" stroke-miterlimit="10"/>
<path d="M234.562 54.739L234.41 78.605" stroke="#E84153" stroke-width="4.26" stroke-miterlimit="10"/>
<path d="M201.73 73.6814L243.83 73.2295" stroke="#E84153" stroke-width="4.26" stroke-miterlimit="10"/>
<path d="M203.196 63.9533L245.571 63.2017" stroke="#E84153" stroke-width="4.26" stroke-miterlimit="10"/>
<path d="M217.089 51.471L230.772 51.3521" stroke="#E84153" stroke-width="4.26" stroke-miterlimit="10"/>
<path d="M271.696 50.3578C271.696 50.3578 268.471 43.7551 271.544 37.9896C271.544 37.9896 264.97 31.7722 261.797 35.5207C258.624 39.2692 259.108 44.9443 259.108 44.9443C259.108 44.9443 259.203 52.3938 262.656 53.5783C266.109 54.7628 271.696 50.3578 271.696 50.3578Z" fill="#F18429"/>
<path d="M295.104 28.366C295.104 28.366 285.888 42.8464 295.104 59.9812C295.104 59.9812 272.74 70.537 279.816 52.7124C279.816 52.7124 280.343 50.2388 276.022 50.2911C276.022 50.2911 272.394 43.246 275.69 37.7992C275.69 37.7992 279.352 37.2474 280.694 35.4207C280.684 35.4302 270.406 17.5438 295.104 28.366Z" fill="#F18429"/>
<path d="M323.406 26.625C319.147 31.2249 316.683 37.2102 316.467 43.4839C316.192 53.6211 322.054 60.2714 323.278 61.6034C321.597 62.189 319.838 62.5177 318.06 62.5785C318.06 62.5785 311.961 71.1412 304.135 70.1232C296.308 69.1052 300.577 61.9649 300.577 61.9649C300.577 61.9649 291.224 45.7292 300.169 26.9295C300.169 26.9295 297.357 19.7416 300.644 16.3641C302.806 14.1521 306.283 14.6088 308.048 14.8276C316.766 15.917 322.04 24.2941 323.406 26.625Z" fill="#F18429"/>
<path d="M326.726 28.6418C326.726 28.6418 315.139 42.5847 327.243 60.1476C327.243 60.1476 362.508 46.0715 326.726 28.6418Z" fill="#F18429"/>
<path d="M331.27 43.089C332.692 43.089 333.846 41.9325 333.846 40.5059C333.846 39.0793 332.692 37.9229 331.27 37.9229C329.848 37.9229 328.694 39.0793 328.694 40.5059C328.694 41.9325 329.848 43.089 331.27 43.089Z" fill="white"/>
<path d="M465.268 22.1152L459.358 12.939C459.358 12.939 455.189 14.9607 460.274 25.3786" fill="white"/>
<path d="M465.268 22.1152L459.358 12.939C459.358 12.939 455.189 14.9607 460.274 25.3786" stroke="#343434" stroke-width="1.7" stroke-miterlimit="10"/>
<path d="M479.948 6.89773C479.948 6.89773 484.568 6.59329 485.275 18.1719L479.327 17.8056L479.948 6.89773Z" fill="white" stroke="#343434" stroke-width="1.7" stroke-miterlimit="10"/>
<path d="M481.087 11.8022C481.087 13.9836 480.442 16.1161 479.233 17.9298C478.024 19.7434 476.306 21.1567 474.296 21.9909C472.286 22.8251 470.075 23.0426 467.942 22.616C465.809 22.1894 463.85 21.1377 462.313 19.5942C460.776 18.0506 459.73 16.0845 459.307 13.9446C458.884 11.8047 459.104 9.58714 459.938 7.57251C460.773 5.55788 462.184 3.83672 463.994 2.6268C465.804 1.41688 467.931 0.772577 470.106 0.7754C473.02 0.779182 475.813 1.9426 477.871 4.01011C479.93 6.07761 481.087 8.88015 481.087 11.8022Z" fill="#343434" stroke="#343434" stroke-width="3.27" stroke-miterlimit="10"/>
<path d="M481.087 55.9567L486.152 54.3155L493.627 64.976L496.312 77.9769C496.312 77.9769 496.896 83.8328 502.734 82.1916C508.573 80.5504 505.187 73.9905 505.187 73.9905L501.919 62.5118L493.627 44.9442L490.241 31.8243L496.312 32.5284L507.416 24.0847C507.416 24.0847 509.636 20.3361 506.714 17.6437C503.792 14.9512 499.822 17.6437 499.822 17.6437L494.216 22.8383L485.455 18.8139C485.455 18.8139 482.77 17.2917 479.967 17.9957C477.164 18.6997 466.535 21.3922 466.535 21.3922C466.535 21.3922 463.964 21.0402 459.761 27.015C458.761 28.4421 457.912 29.5695 457.2 30.4638C454.919 33.318 454.041 33.7937 454.041 33.7937L446.215 33.4417C446.215 33.4417 440.96 32.2715 440.376 37.8943C439.793 43.5171 447.15 43.0319 447.15 43.0319L456.731 44.0641L464.206 38.5793L469.11 51.9322L473.782 71.3741L481.087 85.4501C481.087 85.4501 482.296 87.7906 487.438 87.0913C492.579 86.392 489.074 79.4801 489.074 79.4801L482.533 68.4676L481.087 55.9567Z" fill="#343434" stroke="#343434" stroke-width="3.27" stroke-miterlimit="10"/>
<path d="M461.327 32.8423C460.211 32.2081 459.08 31.5611 457.935 30.9015L456.958 30.3544L458.822 27.7571L462.887 29.9643L461.327 32.8423Z" fill="white" stroke="white" stroke-width="3.27" stroke-miterlimit="10"/>
<path d="M446.689 30.9871C447.46 33.4064 447.718 35.9603 447.449 38.4855C447.179 41.0108 446.388 43.4519 445.124 45.6529L446.59 46.2904C446.59 46.2904 450.356 38.3937 448.644 32.1145L446.689 30.9871Z" fill="white" stroke="white" stroke-width="3.27" stroke-miterlimit="10"/>
<path d="M498.29 15.5222C498.718 18.0255 499.663 20.4116 501.062 22.5281C502.462 24.6446 504.287 26.4451 506.42 27.8143L505.409 29.0607C505.409 29.0607 498.437 23.7947 497.071 17.4298L498.29 15.5222Z" fill="white" stroke="white" stroke-width="3.27" stroke-miterlimit="10"/>
<path d="M488.05 18.4905L486.038 22.8241L488.69 24.3083L491.047 19.8034L488.05 18.4905Z" fill="white" stroke="white" stroke-width="1.7" stroke-miterlimit="10"/>
<path d="M470.476 28.366C472.416 28.366 472.421 25.3406 470.476 25.3406C468.532 25.3406 468.532 28.366 470.476 28.366Z" fill="white"/>
<path d="M478.013 26.0208C479.953 26.0208 479.958 22.9954 478.013 22.9954C476.068 22.9954 476.068 26.0208 478.013 26.0208Z" fill="white"/>
<path d="M502.497 56.3468C501.253 56.4103 500.016 56.5838 498.802 56.8653C495.37 57.6872 492.183 59.318 489.506 61.6223L488.557 60.3426C488.557 60.3426 495.316 54.8007 501.805 54.9862L502.497 56.3468Z" fill="white" stroke="white" stroke-width="1.7" stroke-miterlimit="10"/>
<path d="M484.227 63.8676C482.985 63.7767 481.737 63.7958 480.499 63.9247C476.993 64.3153 473.63 65.5383 470.69 67.4925L469.888 66.1034C469.888 66.1034 477.273 61.4368 483.691 62.4167L484.227 63.8676Z" fill="white" stroke="white" stroke-width="1.7" stroke-miterlimit="10"/>
<path d="M492.693 71.8594C493.931 71.993 495.179 72.0169 496.421 71.9307C499.938 71.6637 503.342 70.5597 506.349 68.7102L507.103 70.1373C507.103 70.1373 499.556 74.5423 493.182 73.3388L492.693 71.8594Z" fill="white" stroke="white" stroke-width="1.7" stroke-miterlimit="10"/>
<path d="M475.177 77.663C476.421 77.7063 477.667 77.6395 478.9 77.4632C482.389 76.943 485.705 75.596 488.571 73.5339L489.425 74.8897C489.425 74.8897 482.216 79.8275 475.77 79.0854L475.177 77.663Z" fill="white" stroke="white" stroke-width="1.7" stroke-miterlimit="10"/>
<path d="M467.469 33.7034L470.737 42.6465C470.812 42.9019 470.983 43.118 471.214 43.2493C471.445 43.3807 471.718 43.417 471.975 43.3506L485.982 38.879C486.237 38.8046 486.453 38.6332 486.584 38.4013C486.715 38.1694 486.751 37.8953 486.684 37.6374L483.544 28.3137C483.469 28.0576 483.299 27.8408 483.067 27.7093C482.836 27.5777 482.563 27.542 482.306 27.6096L468.176 32.4618C466.957 32.8804 467.483 34.8403 468.712 34.4074L482.842 29.5552L481.604 28.8512L484.744 38.1749L485.446 36.9334L471.439 41.405L472.677 42.109L469.409 33.1658C468.968 31.9575 467.023 32.4808 467.469 33.7034Z" fill="white"/>
<path d="M467.773 6.18875C467.773 6.18875 458.106 8.79083 463.461 16.0405C468.816 23.2902 476.315 16.6018 477.079 15.1177C477.842 13.6335 479.009 7.58731 474.29 5.42286C474.285 5.42762 471.847 4.62845 467.773 6.18875Z" fill="white" stroke="white" stroke-width="0.85" stroke-miterlimit="10"/>
<path d="M472.046 8.87186L473.284 10.1563L475.4 8.07268L473.559 6.26978L472.046 8.87186Z" fill="#343434"/>
<path d="M473.721 10.7651L476.092 8.72437C476.092 8.72437 478.089 14.3709 472.696 17.6152C473.418 16.6473 473.89 15.515 474.068 14.3196C474.247 13.1241 474.128 11.9029 473.721 10.7651Z" fill="#343434"/>
</g>
<defs>
<clipPath id="clip0">
<rect width="509" height="88" fill="white"/>
</clipPath>
</defs>
</svg>
